<?xml version="1.0" encoding="UTF-8"?>
<svg version="1.1" xmlns="http://www.w3.org/2000/svg" width="512" height="512" viewBox="0 0 512 512">
<path d="M0 0 C1.07865326 -0.00623996 2.15730652 -0.01247993 3.26864624 -0.01890898 C6.89546342 -0.03490751 10.52161492 -0.02220737 14.1484375 -0.00964355 C16.74349359 -0.0150616 19.3385466 -0.02218246 21.93359375 -0.03088379 C28.25779314 -0.04868452 34.5818028 -0.04482221 40.90600967 -0.03323323 C46.04510304 -0.02420524 51.18414317 -0.02297214 56.32324219 -0.02732849 C57.41973996 -0.02824789 57.41973996 -0.02824789 58.53838921 -0.02918586 C60.02332816 -0.03046474 61.5082671 -0.0317616 62.99320602 -0.03307623 C76.92247659 -0.04448657 90.85164192 -0.03136123 104.78089523 -0.00987476 C116.73679537 0.00799666 128.69254017 0.00489268 140.6484375 -0.0135498 C154.52733926 -0.03494854 168.40614875 -0.04338789 182.2850647 -0.03110075 C183.76458739 -0.02982653 185.24411009 -0.02856905 186.72363281 -0.02732849 C187.81560628 -0.02640284 187.81560628 -0.02640284 188.92963982 -0.02545848 C194.06346728 -0.02200258 199.19723628 -0.02783908 204.33105469 -0.0372467 C211.23887883 -0.04962671 218.14640414 -0.04083189 225.05419922 -0.01766968 C227.59390778 -0.01236719 230.13364098 -0.01392247 232.67333984 -0.02272034 C236.13152254 -0.03359813 239.58875349 -0.02000508 243.046875 0 C244.56612076 -0.01338433 244.56612076 -0.01338433 246.11605835 -0.02703905 C252.75648453 0.04783413 252.75648453 0.04783413 256.14815903 2.08252335 C257.99402186 5.33784693 258.06609144 8.17911446 258.00445557 11.82244873 C258.00787327 12.56090585 258.01129097 13.29936298 258.01481223 14.06019759 C258.02140314 16.535684 257.99939623 19.01008707 257.97753906 21.48547363 C257.97641084 23.25943984 257.97704395 25.03340792 257.97930908 26.80737305 C257.98045815 31.62532756 257.95691767 36.44288487 257.92901325 41.26074696 C257.9040317 46.29492499 257.90166016 51.32911183 257.89691162 56.36334229 C257.8844723 65.89727543 257.85163772 75.43102541 257.81151366 84.96487784 C257.76682573 95.81842628 257.7448164 106.6719834 257.72473192 117.52560091 C257.68290596 139.85314707 257.61253528 162.18053056 257.5234375 184.50793457 C259.23898834 184.4946109 259.23898834 184.4946109 260.98919678 184.48101807 C271.76011332 184.39998066 282.53096813 184.33999239 293.30212021 184.30068588 C298.83988893 184.27979871 304.37741183 184.25146014 309.91503906 184.20617676 C315.25777863 184.16275977 320.60028155 184.13880598 325.9431839 184.1284256 C327.9829913 184.1210268 330.02278554 184.10657889 332.06249237 184.08501434 C334.91662223 184.0560357 337.76977047 184.05197627 340.62402344 184.05383301 C341.46991028 184.0394519 342.31579712 184.0250708 343.18731689 184.01025391 C343.96691772 184.01575256 344.74651855 184.02125122 345.54974365 184.0269165 C346.22449612 184.02322933 346.89924858 184.01954216 347.59444809 184.01574326 C350.73463348 184.8169773 351.69263809 185.79941261 353.5234375 188.50793457 C354.12008445 192.05625881 354.04502615 195.57285264 354.00445557 199.16326904 C354.00787327 200.26107877 354.01129097 201.35888851 354.01481223 202.4899652 C354.0214192 206.18143903 353.99936753 209.87219139 353.97753906 213.56359863 C353.97641119 216.20456587 353.97686697 218.84548843 353.97930908 221.4864502 C353.98140719 227.17883064 353.96885003 232.87102778 353.94635773 238.56336212 C353.91385886 246.79350471 353.90343289 255.0235586 353.89840576 263.2537584 C353.88964978 276.60643769 353.863026 289.95901927 353.82519531 303.31164551 C353.78848306 316.2829947 353.76016746 329.25431736 353.74316406 342.22570801 C353.74211317 343.02517193 353.74106227 343.82463585 353.73997954 344.64832595 C353.73475941 348.65897434 353.72970457 352.66962292 353.72473192 356.68027163 C353.68326044 389.95623041 353.6128038 423.23206942 353.5234375 456.50793457 C354.34328125 456.46152832 355.163125 456.41512207 356.0078125 456.36730957 C357.08546875 456.33121582 358.163125 456.29512207 359.2734375 456.25793457 C360.34078125 456.21152832 361.408125 456.16512207 362.5078125 456.11730957 C365.5234375 456.50793457 365.5234375 456.50793457 367.88171387 458.31555176 C370.24237848 461.46801934 370.04107532 463.85318488 370.0546875 467.75793457 C370.0585144 468.45306152 370.06234131 469.14818848 370.06628418 469.86437988 C370.0689993 471.33021498 370.06166585 472.79609885 370.04492188 474.26184082 C370.02350169 476.50122432 370.04473193 478.73740044 370.0703125 480.97668457 C370.06766915 482.40377496 370.062544 483.83086336 370.0546875 485.25793457 C370.05017578 486.55215332 370.04566406 487.84637207 370.04101562 489.17980957 C369.41588322 493.19952888 368.76792981 494.11663692 365.5234375 496.50793457 C362.69244829 496.89991082 360.25109035 497.04566005 357.42114258 497.01129913 C356.59379923 497.0171129 355.76645588 497.02292666 354.91404152 497.0289166 C352.12339235 497.04359121 349.33361247 497.02959678 346.54296875 497.01586914 C344.52946012 497.02047511 342.51595486 497.02682596 340.50245667 497.03477812 C334.95515763 497.05153634 329.40813247 497.04319561 323.86083221 497.03083324 C317.88392748 497.02181158 311.90707103 497.03573812 305.93017578 497.04675293 C294.89343682 497.06354274 283.85677354 497.06204391 272.82003403 497.05110706 C262.6249677 497.04105358 252.42993354 497.03841393 242.23486328 497.04319763 C241.55918151 497.04350317 240.88349974 497.04380871 240.18734276 497.04412351 C237.44468268 497.04536882 234.70202261 497.04664242 231.95936257 497.04796257 C206.21947725 497.06020466 180.47964782 497.04909508 154.73977113 497.02757498 C131.86033831 497.00859187 108.98099454 497.01029035 86.1015625 497.02941895 C60.40942518 497.05082722 34.71733726 497.05933654 9.02519226 497.04696989 C6.28746542 497.04568698 3.54973858 497.04443562 0.81201172 497.04319763 C0.13788998 497.04288132 -0.53623176 497.04256501 -1.23078144 497.04223912 C-11.42063214 497.03768498 -21.6104472 497.04301822 -31.80029297 497.05311584 C-43.38404933 497.06453738 -54.96772093 497.06134054 -66.5514679 497.03999287 C-72.46583021 497.02945386 -78.38001144 497.02540911 -84.29437256 497.03858948 C-89.70271887 497.05046022 -95.1107153 497.04403899 -100.51902962 497.02267927 C-102.48127965 497.01819056 -104.44355891 497.02052988 -106.40579033 497.03018242 C-109.06237646 497.04225373 -111.71774621 497.02996658 -114.37426758 497.01129913 C-115.53117127 497.02534613 -115.53117127 497.02534613 -116.71144676 497.0396769 C-120.17368247 496.99066989 -122.12830018 496.76461536 -124.9506073 494.6844821 C-127.16271956 491.52923385 -126.99448189 489.08191443 -127.0078125 485.25793457 C-127.0116394 484.56280762 -127.01546631 483.86768066 -127.01940918 483.15148926 C-127.0221243 481.68565416 -127.01479085 480.21977029 -126.99804688 478.75402832 C-126.97662669 476.51464482 -126.99785693 474.2784687 -127.0234375 472.03918457 C-127.02079415 470.61209418 -127.015669 469.18500578 -127.0078125 467.75793457 C-127.00330078 466.46371582 -126.99878906 465.16949707 -126.99414062 463.83605957 C-126.3765513 459.8648437 -125.62428025 458.92065803 -122.4765625 456.50793457 C-119.4609375 456.11730957 -119.4609375 456.11730957 -116.2265625 456.25793457 C-115.14890625 456.29402832 -114.07125 456.33012207 -112.9609375 456.36730957 C-112.14109375 456.41371582 -111.32125 456.46012207 -110.4765625 456.50793457 C-110.47884082 455.40567673 -110.47884082 455.40567673 -110.48116517 454.28115106 C-110.57061771 410.75837714 -110.63927847 367.2356132 -110.68082382 323.71276583 C-110.68582683 318.49051723 -110.6910041 313.26826882 -110.69628906 308.04602051 C-110.6973383 307.00633581 -110.69838755 305.96665111 -110.69946858 304.89546081 C-110.71688842 288.04636622 -110.74843479 271.19732605 -110.78517368 254.34826377 C-110.8225392 237.06809822 -110.84478905 219.78796124 -110.85291648 202.50775695 C-110.85841337 191.83923326 -110.87579387 181.17086338 -110.90822837 170.50238702 C-110.9293221 163.19319172 -110.93577424 155.88407628 -110.93056801 148.57485273 C-110.92799819 144.35359616 -110.93202216 140.1326089 -110.9533844 135.91139984 C-110.97278456 132.049831 -110.97387554 128.18871376 -110.96015808 124.32712457 C-110.95846159 122.92732278 -110.9635914 121.52749334 -110.97609523 120.12774637 C-110.99206533 118.23022016 -110.98113921 116.33252385 -110.96875381 114.43497086 C-110.97103214 112.85153708 -110.97103214 112.85153708 -110.97335649 111.23611474 C-110.35130179 107.82005629 -109.15961548 106.63958959 -106.4765625 104.50793457 C-104.54757309 104.01574326 -104.54757309 104.01574326 -102.50286865 104.0269165 C-101.72326782 104.02141785 -100.94366699 104.01591919 -100.14044189 104.01025391 C-99.29455505 104.02463501 -98.44866821 104.03901611 -97.57714844 104.05383301 C-96.67923584 104.0532489 -95.78132324 104.05266479 -94.85620117 104.05206299 C-91.89071891 104.05484789 -88.92624399 104.08595923 -85.9609375 104.11730957 C-83.90399729 104.12477051 -81.84704996 104.13046414 -79.7901001 104.13446045 C-74.37793328 104.14972829 -68.96619629 104.18902031 -63.55419922 104.23327637 C-58.03098363 104.27420408 -52.50769854 104.29246614 -46.984375 104.31262207 C-36.14824872 104.35551321 -25.31244136 104.4237787 -14.4765625 104.50793457 C-14.48544495 103.2640094 -14.49432739 102.02008423 -14.503479 100.73846436 C-14.58450389 89.02570963 -14.64449871 77.31301164 -14.68381119 65.60004044 C-14.70470148 59.57800889 -14.73304592 53.55620327 -14.77832031 47.53430176 C-14.8217259 41.7247266 -14.84568874 35.915369 -14.85607147 30.10564423 C-14.8634723 27.88721033 -14.87792407 25.66878857 -14.89948273 23.45044708 C-14.92844584 20.34727586 -14.9325214 17.24500789 -14.93066406 14.14172363 C-14.94504517 13.22103088 -14.95942627 12.30033813 -14.97424316 11.35174561 C-14.96874451 10.50483154 -14.96324585 9.65791748 -14.95758057 8.78533936 C-14.96126774 8.05159214 -14.96495491 7.31784492 -14.96875381 6.56186295 C-13.15300138 -1.01532369 -6.3310263 -0.0557754 0 0 Z " fill="#000000" transform="translate(134.4765625,7.4920654296875)"/>
<path d="M0 0 C79.2 0 158.4 0 240 0 C240 145.2 240 290.4 240 440 C221.52 440 203.04 440 184 440 C183.95101562 431.15574219 183.90203125 422.31148438 183.8515625 413.19921875 C183.81169516 406.89665549 183.7705833 400.59411002 183.72766876 394.2915678 C183.67219604 386.12026392 183.61969229 377.94897561 183.578125 369.77758789 C183.5452126 363.30943787 183.50538565 356.84137399 183.45720994 350.37331897 C183.43193736 346.94764591 183.41015841 343.52203004 183.39665604 340.09628868 C183.38146371 336.27461922 183.35083596 332.45315946 183.31884766 328.6315918 C183.31668747 327.49223679 183.31452728 326.35288177 183.31230164 325.17900085 C183.30113815 324.13993591 183.28997467 323.10087097 183.2784729 322.03031921 C183.27294214 321.1260403 183.26741138 320.22176138 183.26171303 319.29008007 C183.1448657 316.72260491 183.1448657 316.72260491 181 314 C178.09936446 313.03312149 176.24191819 312.86791417 173.22438049 312.85282898 C172.24158112 312.84567368 171.25878174 312.83851837 170.24620056 312.83114624 C169.16923416 312.82845734 168.09226776 312.82576843 166.98266602 312.82299805 C165.84748535 312.81642685 164.71230469 312.80985565 163.54272461 312.80308533 C159.77978453 312.78334577 156.0168843 312.77169021 152.25390625 312.76171875 C150.97084028 312.75764322 149.68777431 312.7535677 148.36582756 312.74936867 C142.27896039 312.73065956 136.19211325 312.71609188 130.10522324 312.7077567 C123.07899853 312.69797599 116.05308817 312.67163083 109.02697426 312.63125581 C102.94063093 312.59748057 96.85442006 312.58561387 90.7679882 312.58155251 C88.17835288 312.57666915 85.58872133 312.56500591 82.99914742 312.54651451 C79.38141656 312.52228047 75.76451494 312.52305932 72.14672852 312.5300293 C71.07178635 312.51721924 69.99684418 312.50440918 68.889328 312.49121094 C67.9037088 312.49815475 66.9180896 312.50509857 65.90260315 312.51225281 C65.04738854 312.50986445 64.19217394 312.5074761 63.31104374 312.50501537 C60.11975033 313.18853388 58.94711853 314.41505324 57 317 C56.3999163 319.44860107 56.3999163 319.44860107 56.48101807 322.15057373 C56.46014885 323.71123314 56.46014885 323.71123314 56.43885803 325.30342102 C56.44640358 327.00706062 56.44640358 327.00706062 56.45410156 328.74511719 C56.44376389 329.94539047 56.43342621 331.14566376 56.42277527 332.38230896 C56.39834124 335.66930905 56.39151056 338.95578109 56.39249516 342.24285412 C56.38936606 345.67958694 56.36374802 349.11615029 56.34051514 352.55279541 C56.29995109 359.05857314 56.27961356 365.56425063 56.26654124 372.07013535 C56.24911566 380.2044048 56.20469433 388.3384978 56.16015625 396.47265625 C56.08083178 410.9817661 56.04235076 425.4906305 56 440 C37.52 440 19.04 440 0 440 C0 294.8 0 149.6 0 0 Z " fill="#ABAAB0" transform="translate(136,24)"/>
<path d="M0 0 C26.4 0 52.8 0 80 0 C80 110.88 80 221.76 80 336 C53.6 336 27.2 336 0 336 C0 225.12 0 114.24 0 0 Z " fill="#77757F" transform="translate(40,128)"/>
<path d="M0 0 C26.4 0 52.8 0 80 0 C80 84.48 80 168.96 80 256 C53.6 256 27.2 256 0 256 C0 171.52 0 87.04 0 0 Z " fill="#77757F" transform="translate(392,208)"/>
<path d="M0 0 C0.80520411 -0.00638882 1.61040822 -0.01277764 2.44001245 -0.01936007 C5.13576762 -0.03461007 7.83005306 -0.01414953 10.52575684 0.00622559 C12.45924873 0.00272438 14.39273774 -0.00293418 16.32621765 -0.0105896 C21.5762809 -0.0248473 26.82582102 -0.00776622 32.07583427 0.01569557 C37.56813242 0.03578951 43.06040852 0.02992577 48.55273438 0.02758789 C57.77641436 0.02764148 66.9998896 0.04740786 76.22351074 0.07946777 C86.88962161 0.11636119 97.55546423 0.12514347 108.22163057 0.11817026 C118.47910468 0.11186655 128.73648673 0.12261713 138.99394226 0.14213562 C143.36066499 0.15031363 147.72734069 0.15301842 152.09407043 0.15144348 C157.23559958 0.15056499 162.37687352 0.1647713 167.51833534 0.19067001 C169.40614396 0.19783649 171.29397971 0.19991313 173.18179893 0.19655228 C175.75713763 0.19284177 178.33172977 0.20756984 180.90698242 0.22705078 C181.65552443 0.22172286 182.40406644 0.21639493 183.17529154 0.21090555 C187.59621227 0.26867304 190.43878641 0.89045667 193.95349121 3.62145996 C195.38015137 6.47478028 195.09656814 8.91334269 195.11462402 12.10314941 C195.11958893 12.76840637 195.12455383 13.43366333 195.12966919 14.11907959 C195.14429743 16.32431059 195.15109447 18.52946962 195.15661621 20.73474121 C195.16236788 22.26690167 195.16812561 23.79906212 195.17388916 25.33122253 C195.18440155 28.54670548 195.1902424 31.76216341 195.19372559 34.97766113 C195.19920563 39.09357886 195.22322188 43.20916499 195.25169754 47.32497883 C195.27034372 50.49145973 195.2755306 53.65786116 195.27706146 56.82439232 C195.28008493 58.34142046 195.28810319 59.85844731 195.30124664 61.37542152 C195.3183464 63.50106446 195.31641766 65.62590266 195.30993652 67.75158691 C195.31540497 69.56455009 195.31540497 69.56455009 195.32098389 71.41413879 C194.91600993 74.9485808 194.13290656 76.82965071 191.95349121 79.62145996 C188.30007238 80.83926624 184.94449687 80.76626696 181.14076233 80.76190186 C179.93446109 80.76635854 179.93446109 80.76635854 178.70379013 80.77090526 C175.99998538 80.77960023 173.29622486 80.78110117 170.59240723 80.78259277 C168.65759181 80.7872203 166.7227773 80.79224487 164.78796387 80.79763794 C159.52564442 80.8107683 154.26333773 80.81720788 149.00100446 80.8216486 C145.71558729 80.82457766 142.43017363 80.8286821 139.14475822 80.83315277 C128.87183223 80.84682797 118.59891423 80.85649512 108.32597977 80.86035466 C96.45500326 80.86483879 84.5841417 80.88240307 72.71320015 80.91135526 C63.54457313 80.93294317 54.37597853 80.94305736 45.20732635 80.94439578 C39.72761014 80.94544568 34.24800198 80.95139287 28.76831245 80.96921539 C23.61619267 80.98564664 18.46426274 80.98787572 13.31212616 80.97907639 C11.41904379 80.97830341 9.52595141 80.98268281 7.63289452 80.99253464 C5.05276898 81.00517695 2.47332381 80.99941976 -0.10679626 80.98895264 C-1.2360249 81.00103724 -1.2360249 81.00103724 -2.38806623 81.01336598 C-5.51413664 80.98361149 -7.71501042 80.80336395 -10.48024082 79.28599167 C-13.59087024 75.98020913 -13.19334308 72.33636448 -13.23937988 68.02624512 C-13.24755737 67.36084213 -13.25573486 66.69543915 -13.26416016 66.00987244 C-13.28895232 63.81009817 -13.30551256 61.61038808 -13.31994629 59.41052246 C-13.32526997 58.65826763 -13.33059364 57.9060128 -13.33607864 57.13096237 C-13.36278108 53.15059173 -13.38216676 49.17025217 -13.39660645 45.18981934 C-13.40995559 41.89754513 -13.43782889 38.6058893 -13.4786377 35.31384277 C-13.52794844 31.33566854 -13.55272487 27.35805588 -13.55983353 23.37958908 C-13.56654539 21.86530804 -13.58176607 20.35103951 -13.60572433 18.83693314 C-13.63737819 16.7157797 -13.63741446 14.59679187 -13.63000488 12.47546387 C-13.63809174 11.26983795 -13.64617859 10.06421204 -13.6545105 8.822052 C-12.21672478 1.25337999 -6.89116069 -0.1152407 0 0 Z " fill="#000000" transform="translate(165.0465087890625,231.3785400390625)"/>
<path d="M0 0 C0.80520411 -0.00638882 1.61040822 -0.01277764 2.44001245 -0.01936007 C5.13576762 -0.03461007 7.83005306 -0.01414953 10.52575684 0.00622559 C12.45924873 0.00272438 14.39273774 -0.00293418 16.32621765 -0.0105896 C21.5762809 -0.0248473 26.82582102 -0.00776622 32.07583427 0.01569557 C37.56813242 0.03578951 43.06040852 0.02992577 48.55273438 0.02758789 C57.77641436 0.02764148 66.9998896 0.04740786 76.22351074 0.07946777 C86.88962161 0.11636119 97.55546423 0.12514347 108.22163057 0.11817026 C118.47910468 0.11186655 128.73648673 0.12261713 138.99394226 0.14213562 C143.36066499 0.15031363 147.72734069 0.15301842 152.09407043 0.15144348 C157.23559958 0.15056499 162.37687352 0.1647713 167.51833534 0.19067001 C169.40614396 0.19783649 171.29397971 0.19991313 173.18179893 0.19655228 C175.75713763 0.19284177 178.33172977 0.20756984 180.90698242 0.22705078 C181.65552443 0.22172286 182.40406644 0.21639493 183.17529154 0.21090555 C187.59621227 0.26867304 190.43878641 0.89045667 193.95349121 3.62145996 C195.38015137 6.47478028 195.09656814 8.91334269 195.11462402 12.10314941 C195.11958893 12.76840637 195.12455383 13.43366333 195.12966919 14.11907959 C195.14429743 16.32431059 195.15109447 18.52946962 195.15661621 20.73474121 C195.16236788 22.26690167 195.16812561 23.79906212 195.17388916 25.33122253 C195.18440155 28.54670548 195.1902424 31.76216341 195.19372559 34.97766113 C195.19920563 39.09357886 195.22322188 43.20916499 195.25169754 47.32497883 C195.27034372 50.49145973 195.2755306 53.65786116 195.27706146 56.82439232 C195.28008493 58.34142046 195.28810319 59.85844731 195.30124664 61.37542152 C195.3183464 63.50106446 195.31641766 65.62590266 195.30993652 67.75158691 C195.31540497 69.56455009 195.31540497 69.56455009 195.32098389 71.41413879 C194.91600993 74.9485808 194.13290656 76.82965071 191.95349121 79.62145996 C188.30007238 80.83926624 184.94449687 80.76626696 181.14076233 80.76190186 C179.93446109 80.76635854 179.93446109 80.76635854 178.70379013 80.77090526 C175.99998538 80.77960023 173.29622486 80.78110117 170.59240723 80.78259277 C168.65759181 80.7872203 166.7227773 80.79224487 164.78796387 80.79763794 C159.52564442 80.8107683 154.26333773 80.81720788 149.00100446 80.8216486 C145.71558729 80.82457766 142.43017363 80.8286821 139.14475822 80.83315277 C128.87183223 80.84682797 118.59891423 80.85649512 108.32597977 80.86035466 C96.45500326 80.86483879 84.5841417 80.88240307 72.71320015 80.91135526 C63.54457313 80.93294317 54.37597853 80.94305736 45.20732635 80.94439578 C39.72761014 80.94544568 34.24800198 80.95139287 28.76831245 80.96921539 C23.61619267 80.98564664 18.46426274 80.98787572 13.31212616 80.97907639 C11.41904379 80.97830341 9.52595141 80.98268281 7.63289452 80.99253464 C5.05276898 81.00517695 2.47332381 80.99941976 -0.10679626 80.98895264 C-1.2360249 81.00103724 -1.2360249 81.00103724 -2.38806623 81.01336598 C-5.51413664 80.98361149 -7.71501042 80.80336395 -10.48024082 79.28599167 C-13.59087024 75.98020913 -13.19334308 72.33636448 -13.23937988 68.02624512 C-13.24755737 67.36084213 -13.25573486 66.69543915 -13.26416016 66.00987244 C-13.28895232 63.81009817 -13.30551256 61.61038808 -13.31994629 59.41052246 C-13.32526997 58.65826763 -13.33059364 57.9060128 -13.33607864 57.13096237 C-13.36278108 53.15059173 -13.38216676 49.17025217 -13.39660645 45.18981934 C-13.40995559 41.89754513 -13.43782889 38.6058893 -13.4786377 35.31384277 C-13.52794844 31.33566854 -13.55272487 27.35805588 -13.55983353 23.37958908 C-13.56654539 21.86530804 -13.58176607 20.35103951 -13.60572433 18.83693314 C-13.63737819 16.7157797 -13.63741446 14.59679187 -13.63000488 12.47546387 C-13.63809174 11.26983795 -13.64617859 10.06421204 -13.6545105 8.822052 C-12.21672478 1.25337999 -6.89116069 -0.1152407 0 0 Z " fill="#000000" transform="translate(165.0465087890625,135.3785400390625)"/>
<path d="M0 0 C0.80520411 -0.00638882 1.61040822 -0.01277764 2.44001245 -0.01936007 C5.13576762 -0.03461007 7.83005306 -0.01414953 10.52575684 0.00622559 C12.45924873 0.00272438 14.39273774 -0.00293418 16.32621765 -0.0105896 C21.5762809 -0.0248473 26.82582102 -0.00776622 32.07583427 0.01569557 C37.56813242 0.03578951 43.06040852 0.02992577 48.55273438 0.02758789 C57.77641436 0.02764148 66.9998896 0.04740786 76.22351074 0.07946777 C86.88962161 0.11636119 97.55546423 0.12514347 108.22163057 0.11817026 C118.47910468 0.11186655 128.73648673 0.12261713 138.99394226 0.14213562 C143.36066499 0.15031363 147.72734069 0.15301842 152.09407043 0.15144348 C157.23559958 0.15056499 162.37687352 0.1647713 167.51833534 0.19067001 C169.40614396 0.19783649 171.29397971 0.19991313 173.18179893 0.19655228 C175.75713763 0.19284177 178.33172977 0.20756984 180.90698242 0.22705078 C181.65552443 0.22172286 182.40406644 0.21639493 183.17529154 0.21090555 C187.59621227 0.26867304 190.43878641 0.89045667 193.95349121 3.62145996 C195.38015137 6.47478028 195.09656814 8.91334269 195.11462402 12.10314941 C195.11958893 12.76840637 195.12455383 13.43366333 195.12966919 14.11907959 C195.14429743 16.32431059 195.15109447 18.52946962 195.15661621 20.73474121 C195.16236788 22.26690167 195.16812561 23.79906212 195.17388916 25.33122253 C195.18440155 28.54670548 195.1902424 31.76216341 195.19372559 34.97766113 C195.19920563 39.09357886 195.22322188 43.20916499 195.25169754 47.32497883 C195.27034372 50.49145973 195.2755306 53.65786116 195.27706146 56.82439232 C195.28008493 58.34142046 195.28810319 59.85844731 195.30124664 61.37542152 C195.3183464 63.50106446 195.31641766 65.62590266 195.30993652 67.75158691 C195.31540497 69.56455009 195.31540497 69.56455009 195.32098389 71.41413879 C194.91600993 74.9485808 194.13290656 76.82965071 191.95349121 79.62145996 C188.30007238 80.83926624 184.94449687 80.76626696 181.14076233 80.76190186 C179.93446109 80.76635854 179.93446109 80.76635854 178.70379013 80.77090526 C175.99998538 80.77960023 173.29622486 80.78110117 170.59240723 80.78259277 C168.65759181 80.7872203 166.7227773 80.79224487 164.78796387 80.79763794 C159.52564442 80.8107683 154.26333773 80.81720788 149.00100446 80.8216486 C145.71558729 80.82457766 142.43017363 80.8286821 139.14475822 80.83315277 C128.87183223 80.84682797 118.59891423 80.85649512 108.32597977 80.86035466 C96.45500326 80.86483879 84.5841417 80.88240307 72.71320015 80.91135526 C63.54457313 80.93294317 54.37597853 80.94305736 45.20732635 80.94439578 C39.72761014 80.94544568 34.24800198 80.95139287 28.76831245 80.96921539 C23.61619267 80.98564664 18.46426274 80.98787572 13.31212616 80.97907639 C11.41904379 80.97830341 9.52595141 80.98268281 7.63289452 80.99253464 C5.05276898 81.00517695 2.47332381 80.99941976 -0.10679626 80.98895264 C-1.2360249 81.00103724 -1.2360249 81.00103724 -2.38806623 81.01336598 C-5.51413664 80.98361149 -7.71501042 80.80336395 -10.48024082 79.28599167 C-13.59087024 75.98020913 -13.19334308 72.33636448 -13.23937988 68.02624512 C-13.24755737 67.36084213 -13.25573486 66.69543915 -13.26416016 66.00987244 C-13.28895232 63.81009817 -13.30551256 61.61038808 -13.31994629 59.41052246 C-13.32526997 58.65826763 -13.33059364 57.9060128 -13.33607864 57.13096237 C-13.36278108 53.15059173 -13.38216676 49.17025217 -13.39660645 45.18981934 C-13.40995559 41.89754513 -13.43782889 38.6058893 -13.4786377 35.31384277 C-13.52794844 31.33566854 -13.55272487 27.35805588 -13.55983353 23.37958908 C-13.56654539 21.86530804 -13.58176607 20.35103951 -13.60572433 18.83693314 C-13.63737819 16.7157797 -13.63741446 14.59679187 -13.63000488 12.47546387 C-13.63809174 11.26983795 -13.64617859 10.06421204 -13.6545105 8.822052 C-12.21672478 1.25337999 -6.89116069 -0.1152407 0 0 Z " fill="#000000" transform="translate(165.0465087890625,39.3785400390625)"/>
<path d="M0 0 C13.2 0 26.4 0 40 0 C40 36.96 40 73.92 40 112 C26.8 112 13.6 112 0 112 C0 75.04 0 38.08 0 0 Z " fill="#78B9EB" transform="translate(264,352)"/>
<path d="M0 0 C13.2 0 26.4 0 40 0 C40 36.96 40 73.92 40 112 C26.8 112 13.6 112 0 112 C0 75.04 0 38.08 0 0 Z " fill="#78B9EB" transform="translate(208,352)"/>
<path d="M0 0 C1.73618591 -0.00006042 1.73618591 -0.00006042 3.50744629 -0.00012207 C5.95179684 0.00523347 8.39614694 0.02281732 10.84033203 0.05175781 C14.58028833 0.09359939 18.31844293 0.09282635 22.05859375 0.0859375 C24.43490834 0.09643055 26.81121365 0.10936926 29.1875 0.125 C30.3053186 0.12520142 31.42313721 0.12540283 32.5748291 0.12561035 C34.14170471 0.14947815 34.14170471 0.14947815 35.74023438 0.17382812 C37.11326721 0.18645691 37.11326721 0.18645691 38.51403809 0.19934082 C41.63433226 0.676399 43.54257635 1.76301627 46.09375 3.59375 C47.34331796 6.09288591 47.23417304 7.81015175 47.25488281 10.60668945 C47.26449036 11.65149979 47.2740979 12.69631012 47.28399658 13.77278137 C47.28824646 14.90608383 47.29249634 16.03938629 47.296875 17.20703125 C47.30257507 18.36873337 47.30827515 19.53043549 47.31414795 20.7273407 C47.32360796 23.18955573 47.33013589 25.65178348 47.33398438 28.11401367 C47.3436831 31.88027073 47.37469508 35.64598065 47.40625 39.41210938 C47.41278055 41.80208009 47.41803082 44.19205471 47.421875 46.58203125 C47.4342218 47.70926102 47.4465686 48.83649078 47.45928955 49.99787903 C47.45628845 51.05214584 47.45328735 52.10641266 47.45019531 53.19262695 C47.45566376 54.57923271 47.45566376 54.57923271 47.46124268 55.99385071 C47.01274027 59.16686932 46.00648083 61.03811993 44.09375 63.59375 C41.10007982 64.59164006 39.07986991 64.731735 35.95141602 64.75488281 C34.37947227 64.76929413 34.37947227 64.76929413 32.77577209 64.78399658 C31.64449387 64.78824646 30.51321564 64.79249634 29.34765625 64.796875 C28.18499741 64.80257507 27.02233856 64.80827515 25.82444763 64.81414795 C23.36401276 64.8235985 20.90356524 64.83013215 18.44311523 64.83398438 C14.67474403 64.84370231 10.90691532 64.87473101 7.13867188 64.90625 C4.75000324 64.9127788 2.36133071 64.91802975 -0.02734375 64.921875 C-1.15659775 64.9342218 -2.28585175 64.9465686 -3.44932556 64.95928955 C-4.50044022 64.95628845 -5.55155487 64.95328735 -6.63452148 64.95019531 C-8.01993385 64.95566376 -8.01993385 64.95566376 -9.43333435 64.96124268 C-12.40517716 64.51960591 -13.75266834 63.66308457 -15.90625 61.59375 C-16.89874837 58.6162549 -17.05561356 56.57901066 -17.09912109 53.46728516 C-17.12321548 51.90018295 -17.12321548 51.90018295 -17.14779663 50.30142212 C-17.19227343 45.53363736 -17.23329304 40.76599045 -17.25634766 35.99804688 C-17.27292624 33.48200239 -17.30024082 30.96600536 -17.33837891 28.45019531 C-17.39307216 24.82331909 -17.41500922 21.19754524 -17.4296875 17.5703125 C-17.45235687 16.44621979 -17.47502625 15.32212708 -17.49838257 14.16397095 C-17.48584185 9.53919286 -17.3915723 6.46515725 -15.11767578 2.38232422 C-10.1738313 -0.37110475 -5.56894735 -0.08168084 0 0 Z " fill="#000000" transform="translate(416.90625,295.40625)"/>
<path d="M0 0 C1.73618591 -0.00006042 1.73618591 -0.00006042 3.50744629 -0.00012207 C5.95179684 0.00523347 8.39614694 0.02281732 10.84033203 0.05175781 C14.58028833 0.09359939 18.31844293 0.09282635 22.05859375 0.0859375 C24.43490834 0.09643055 26.81121365 0.10936926 29.1875 0.125 C30.3053186 0.12520142 31.42313721 0.12540283 32.5748291 0.12561035 C34.14170471 0.14947815 34.14170471 0.14947815 35.74023438 0.17382812 C37.11326721 0.18645691 37.11326721 0.18645691 38.51403809 0.19934082 C41.63433226 0.676399 43.54257635 1.76301627 46.09375 3.59375 C47.34331796 6.09288591 47.23417304 7.81015175 47.25488281 10.60668945 C47.26449036 11.65149979 47.2740979 12.69631012 47.28399658 13.77278137 C47.28824646 14.90608383 47.29249634 16.03938629 47.296875 17.20703125 C47.30257507 18.36873337 47.30827515 19.53043549 47.31414795 20.7273407 C47.32360796 23.18955573 47.33013589 25.65178348 47.33398438 28.11401367 C47.3436831 31.88027073 47.37469508 35.64598065 47.40625 39.41210938 C47.41278055 41.80208009 47.41803082 44.19205471 47.421875 46.58203125 C47.4342218 47.70926102 47.4465686 48.83649078 47.45928955 49.99787903 C47.45628845 51.05214584 47.45328735 52.10641266 47.45019531 53.19262695 C47.45566376 54.57923271 47.45566376 54.57923271 47.46124268 55.99385071 C47.01274027 59.16686932 46.00648083 61.03811993 44.09375 63.59375 C41.10007982 64.59164006 39.07986991 64.731735 35.95141602 64.75488281 C34.37947227 64.76929413 34.37947227 64.76929413 32.77577209 64.78399658 C31.64449387 64.78824646 30.51321564 64.79249634 29.34765625 64.796875 C28.18499741 64.80257507 27.02233856 64.80827515 25.82444763 64.81414795 C23.36401276 64.8235985 20.90356524 64.83013215 18.44311523 64.83398438 C14.67474403 64.84370231 10.90691532 64.87473101 7.13867188 64.90625 C4.75000324 64.9127788 2.36133071 64.91802975 -0.02734375 64.921875 C-1.15659775 64.9342218 -2.28585175 64.9465686 -3.44932556 64.95928955 C-4.50044022 64.95628845 -5.55155487 64.95328735 -6.63452148 64.95019531 C-8.01993385 64.95566376 -8.01993385 64.95566376 -9.43333435 64.96124268 C-12.40517716 64.51960591 -13.75266834 63.66308457 -15.90625 61.59375 C-16.89874837 58.6162549 -17.05561356 56.57901066 -17.09912109 53.46728516 C-17.12321548 51.90018295 -17.12321548 51.90018295 -17.14779663 50.30142212 C-17.19227343 45.53363736 -17.23329304 40.76599045 -17.25634766 35.99804688 C-17.27292624 33.48200239 -17.30024082 30.96600536 -17.33837891 28.45019531 C-17.39307216 24.82331909 -17.41500922 21.19754524 -17.4296875 17.5703125 C-17.45235687 16.44621979 -17.47502625 15.32212708 -17.49838257 14.16397095 C-17.48584185 9.53919286 -17.3915723 6.46515725 -15.11767578 2.38232422 C-10.1738313 -0.37110475 -5.56894735 -0.08168084 0 0 Z " fill="#000000" transform="translate(64.90625,295.40625)"/>
<path d="M0 0 C1.73618591 -0.00006042 1.73618591 -0.00006042 3.50744629 -0.00012207 C5.95179684 0.00523347 8.39614694 0.02281732 10.84033203 0.05175781 C14.58028833 0.09359939 18.31844293 0.09282635 22.05859375 0.0859375 C24.43490834 0.09643055 26.81121365 0.10936926 29.1875 0.125 C30.3053186 0.12520142 31.42313721 0.12540283 32.5748291 0.12561035 C34.14170471 0.14947815 34.14170471 0.14947815 35.74023438 0.17382812 C37.11326721 0.18645691 37.11326721 0.18645691 38.51403809 0.19934082 C41.63433226 0.676399 43.54257635 1.76301627 46.09375 3.59375 C47.34331796 6.09288591 47.23417304 7.81015175 47.25488281 10.60668945 C47.26449036 11.65149979 47.2740979 12.69631012 47.28399658 13.77278137 C47.28824646 14.90608383 47.29249634 16.03938629 47.296875 17.20703125 C47.30257507 18.36873337 47.30827515 19.53043549 47.31414795 20.7273407 C47.32360796 23.18955573 47.33013589 25.65178348 47.33398438 28.11401367 C47.3436831 31.88027073 47.37469508 35.64598065 47.40625 39.41210938 C47.41278055 41.80208009 47.41803082 44.19205471 47.421875 46.58203125 C47.4342218 47.70926102 47.4465686 48.83649078 47.45928955 49.99787903 C47.45628845 51.05214584 47.45328735 52.10641266 47.45019531 53.19262695 C47.45566376 54.57923271 47.45566376 54.57923271 47.46124268 55.99385071 C47.01274027 59.16686932 46.00648083 61.03811993 44.09375 63.59375 C41.10007982 64.59164006 39.07986991 64.731735 35.95141602 64.75488281 C34.37947227 64.76929413 34.37947227 64.76929413 32.77577209 64.78399658 C31.64449387 64.78824646 30.51321564 64.79249634 29.34765625 64.796875 C28.18499741 64.80257507 27.02233856 64.80827515 25.82444763 64.81414795 C23.36401276 64.8235985 20.90356524 64.83013215 18.44311523 64.83398438 C14.67474403 64.84370231 10.90691532 64.87473101 7.13867188 64.90625 C4.75000324 64.9127788 2.36133071 64.91802975 -0.02734375 64.921875 C-1.15659775 64.9342218 -2.28585175 64.9465686 -3.44932556 64.95928955 C-4.50044022 64.95628845 -5.55155487 64.95328735 -6.63452148 64.95019531 C-8.01993385 64.95566376 -8.01993385 64.95566376 -9.43333435 64.96124268 C-12.40517716 64.51960591 -13.75266834 63.66308457 -15.90625 61.59375 C-16.89874837 58.6162549 -17.05561356 56.57901066 -17.09912109 53.46728516 C-17.12321548 51.90018295 -17.12321548 51.90018295 -17.14779663 50.30142212 C-17.19227343 45.53363736 -17.23329304 40.76599045 -17.25634766 35.99804688 C-17.27292624 33.48200239 -17.30024082 30.96600536 -17.33837891 28.45019531 C-17.39307216 24.82331909 -17.41500922 21.19754524 -17.4296875 17.5703125 C-17.45235687 16.44621979 -17.47502625 15.32212708 -17.49838257 14.16397095 C-17.48584185 9.53919286 -17.3915723 6.46515725 -15.11767578 2.38232422 C-10.1738313 -0.37110475 -5.56894735 -0.08168084 0 0 Z " fill="#000000" transform="translate(416.90625,215.40625)"/>
<path d="M0 0 C1.73618591 -0.00006042 1.73618591 -0.00006042 3.50744629 -0.00012207 C5.95179684 0.00523347 8.39614694 0.02281732 10.84033203 0.05175781 C14.58028833 0.09359939 18.31844293 0.09282635 22.05859375 0.0859375 C24.43490834 0.09643055 26.81121365 0.10936926 29.1875 0.125 C30.3053186 0.12520142 31.42313721 0.12540283 32.5748291 0.12561035 C34.14170471 0.14947815 34.14170471 0.14947815 35.74023438 0.17382812 C37.11326721 0.18645691 37.11326721 0.18645691 38.51403809 0.19934082 C41.63433226 0.676399 43.54257635 1.76301627 46.09375 3.59375 C47.34331796 6.09288591 47.23417304 7.81015175 47.25488281 10.60668945 C47.26449036 11.65149979 47.2740979 12.69631012 47.28399658 13.77278137 C47.28824646 14.90608383 47.29249634 16.03938629 47.296875 17.20703125 C47.30257507 18.36873337 47.30827515 19.53043549 47.31414795 20.7273407 C47.32360796 23.18955573 47.33013589 25.65178348 47.33398438 28.11401367 C47.3436831 31.88027073 47.37469508 35.64598065 47.40625 39.41210938 C47.41278055 41.80208009 47.41803082 44.19205471 47.421875 46.58203125 C47.4342218 47.70926102 47.4465686 48.83649078 47.45928955 49.99787903 C47.45628845 51.05214584 47.45328735 52.10641266 47.45019531 53.19262695 C47.45566376 54.57923271 47.45566376 54.57923271 47.46124268 55.99385071 C47.01274027 59.16686932 46.00648083 61.03811993 44.09375 63.59375 C41.10007982 64.59164006 39.07986991 64.731735 35.95141602 64.75488281 C34.37947227 64.76929413 34.37947227 64.76929413 32.77577209 64.78399658 C31.64449387 64.78824646 30.51321564 64.79249634 29.34765625 64.796875 C28.18499741 64.80257507 27.02233856 64.80827515 25.82444763 64.81414795 C23.36401276 64.8235985 20.90356524 64.83013215 18.44311523 64.83398438 C14.67474403 64.84370231 10.90691532 64.87473101 7.13867188 64.90625 C4.75000324 64.9127788 2.36133071 64.91802975 -0.02734375 64.921875 C-1.15659775 64.9342218 -2.28585175 64.9465686 -3.44932556 64.95928955 C-4.50044022 64.95628845 -5.55155487 64.95328735 -6.63452148 64.95019531 C-8.01993385 64.95566376 -8.01993385 64.95566376 -9.43333435 64.96124268 C-12.40517716 64.51960591 -13.75266834 63.66308457 -15.90625 61.59375 C-16.89874837 58.6162549 -17.05561356 56.57901066 -17.09912109 53.46728516 C-17.12321548 51.90018295 -17.12321548 51.90018295 -17.14779663 50.30142212 C-17.19227343 45.53363736 -17.23329304 40.76599045 -17.25634766 35.99804688 C-17.27292624 33.48200239 -17.30024082 30.96600536 -17.33837891 28.45019531 C-17.39307216 24.82331909 -17.41500922 21.19754524 -17.4296875 17.5703125 C-17.45235687 16.44621979 -17.47502625 15.32212708 -17.49838257 14.16397095 C-17.48584185 9.53919286 -17.3915723 6.46515725 -15.11767578 2.38232422 C-10.1738313 -0.37110475 -5.56894735 -0.08168084 0 0 Z " fill="#000000" transform="translate(64.90625,215.40625)"/>
<path d="M0 0 C1.73618591 -0.00006042 1.73618591 -0.00006042 3.50744629 -0.00012207 C5.95179684 0.00523347 8.39614694 0.02281732 10.84033203 0.05175781 C14.58028833 0.09359939 18.31844293 0.09282635 22.05859375 0.0859375 C24.43490834 0.09643055 26.81121365 0.10936926 29.1875 0.125 C30.3053186 0.12520142 31.42313721 0.12540283 32.5748291 0.12561035 C34.14170471 0.14947815 34.14170471 0.14947815 35.74023438 0.17382812 C37.11326721 0.18645691 37.11326721 0.18645691 38.51403809 0.19934082 C41.63433226 0.676399 43.54257635 1.76301627 46.09375 3.59375 C47.34331796 6.09288591 47.23417304 7.81015175 47.25488281 10.60668945 C47.26449036 11.65149979 47.2740979 12.69631012 47.28399658 13.77278137 C47.28824646 14.90608383 47.29249634 16.03938629 47.296875 17.20703125 C47.30257507 18.36873337 47.30827515 19.53043549 47.31414795 20.7273407 C47.32360796 23.18955573 47.33013589 25.65178348 47.33398438 28.11401367 C47.3436831 31.88027073 47.37469508 35.64598065 47.40625 39.41210938 C47.41278055 41.80208009 47.41803082 44.19205471 47.421875 46.58203125 C47.4342218 47.70926102 47.4465686 48.83649078 47.45928955 49.99787903 C47.45628845 51.05214584 47.45328735 52.10641266 47.45019531 53.19262695 C47.45566376 54.57923271 47.45566376 54.57923271 47.46124268 55.99385071 C47.01274027 59.16686932 46.00648083 61.03811993 44.09375 63.59375 C41.10007982 64.59164006 39.07986991 64.731735 35.95141602 64.75488281 C34.37947227 64.76929413 34.37947227 64.76929413 32.77577209 64.78399658 C31.64449387 64.78824646 30.51321564 64.79249634 29.34765625 64.796875 C28.18499741 64.80257507 27.02233856 64.80827515 25.82444763 64.81414795 C23.36401276 64.8235985 20.90356524 64.83013215 18.44311523 64.83398438 C14.67474403 64.84370231 10.90691532 64.87473101 7.13867188 64.90625 C4.75000324 64.9127788 2.36133071 64.91802975 -0.02734375 64.921875 C-1.15659775 64.9342218 -2.28585175 64.9465686 -3.44932556 64.95928955 C-4.50044022 64.95628845 -5.55155487 64.95328735 -6.63452148 64.95019531 C-8.01993385 64.95566376 -8.01993385 64.95566376 -9.43333435 64.96124268 C-12.40517716 64.51960591 -13.75266834 63.66308457 -15.90625 61.59375 C-16.89874837 58.6162549 -17.05561356 56.57901066 -17.09912109 53.46728516 C-17.12321548 51.90018295 -17.12321548 51.90018295 -17.14779663 50.30142212 C-17.19227343 45.53363736 -17.23329304 40.76599045 -17.25634766 35.99804688 C-17.27292624 33.48200239 -17.30024082 30.96600536 -17.33837891 28.45019531 C-17.39307216 24.82331909 -17.41500922 21.19754524 -17.4296875 17.5703125 C-17.45235687 16.44621979 -17.47502625 15.32212708 -17.49838257 14.16397095 C-17.48584185 9.53919286 -17.3915723 6.46515725 -15.11767578 2.38232422 C-10.1738313 -0.37110475 -5.56894735 -0.08168084 0 0 Z " fill="#000000" transform="translate(64.90625,135.40625)"/>
<path d="M0 0 C153.12 0 306.24 0 464 0 C464 2.64 464 5.28 464 8 C310.88 8 157.76 8 0 8 C0 5.36 0 2.72 0 0 Z " fill="#3E3D42" transform="translate(24,480)"/>
<path d="M0 0 C10.56 0 21.12 0 32 0 C32 15.84 32 31.68 32 48 C21.44 48 10.88 48 0 48 C0 32.16 0 16.32 0 0 Z " fill="#78B9EB" transform="translate(312,248)"/>
<path d="M0 0 C10.56 0 21.12 0 32 0 C32 15.84 32 31.68 32 48 C21.44 48 10.88 48 0 48 C0 32.16 0 16.32 0 0 Z " fill="#78B9EB" transform="translate(264,248)"/>
<path d="M0 0 C10.56 0 21.12 0 32 0 C32 15.84 32 31.68 32 48 C21.44 48 10.88 48 0 48 C0 32.16 0 16.32 0 0 Z " fill="#78B9EB" transform="translate(216,248)"/>
<path d="M0 0 C10.56 0 21.12 0 32 0 C32 15.84 32 31.68 32 48 C21.44 48 10.88 48 0 48 C0 32.16 0 16.32 0 0 Z " fill="#78B9EB" transform="translate(168,248)"/>
<path d="M0 0 C10.56 0 21.12 0 32 0 C32 15.84 32 31.68 32 48 C21.44 48 10.88 48 0 48 C0 32.16 0 16.32 0 0 Z " fill="#78B9EB" transform="translate(312,152)"/>
<path d="M0 0 C10.56 0 21.12 0 32 0 C32 15.84 32 31.68 32 48 C21.44 48 10.88 48 0 48 C0 32.16 0 16.32 0 0 Z " fill="#78B9EB" transform="translate(264,152)"/>
<path d="M0 0 C10.56 0 21.12 0 32 0 C32 15.84 32 31.68 32 48 C21.44 48 10.88 48 0 48 C0 32.16 0 16.32 0 0 Z " fill="#78B9EB" transform="translate(216,152)"/>
<path d="M0 0 C10.56 0 21.12 0 32 0 C32 15.84 32 31.68 32 48 C21.44 48 10.88 48 0 48 C0 32.16 0 16.32 0 0 Z " fill="#78B9EB" transform="translate(168,152)"/>
<path d="M0 0 C10.56 0 21.12 0 32 0 C32 15.84 32 31.68 32 48 C21.44 48 10.88 48 0 48 C0 32.16 0 16.32 0 0 Z " fill="#78B9EB" transform="translate(312,56)"/>
<path d="M0 0 C10.56 0 21.12 0 32 0 C32 15.84 32 31.68 32 48 C21.44 48 10.88 48 0 48 C0 32.16 0 16.32 0 0 Z " fill="#78B9EB" transform="translate(264,56)"/>
<path d="M0 0 C10.56 0 21.12 0 32 0 C32 15.84 32 31.68 32 48 C21.44 48 10.88 48 0 48 C0 32.16 0 16.32 0 0 Z " fill="#78B9EB" transform="translate(216,56)"/>
<path d="M0 0 C10.56 0 21.12 0 32 0 C32 15.84 32 31.68 32 48 C21.44 48 10.88 48 0 48 C0 32.16 0 16.32 0 0 Z " fill="#78B9EB" transform="translate(168,56)"/>
<path d="M0 0 C10.56 0 21.12 0 32 0 C32 10.56 32 21.12 32 32 C21.44 32 10.88 32 0 32 C0 21.44 0 10.88 0 0 Z " fill="#78B9EB" transform="translate(416,312)"/>
<path d="M0 0 C10.56 0 21.12 0 32 0 C32 10.56 32 21.12 32 32 C21.44 32 10.88 32 0 32 C0 21.44 0 10.88 0 0 Z " fill="#78B9EB" transform="translate(64,312)"/>
<path d="M0 0 C10.56 0 21.12 0 32 0 C32 10.56 32 21.12 32 32 C21.44 32 10.88 32 0 32 C0 21.44 0 10.88 0 0 Z " fill="#78B9EB" transform="translate(416,232)"/>
<path d="M0 0 C10.56 0 21.12 0 32 0 C32 10.56 32 21.12 32 32 C21.44 32 10.88 32 0 32 C0 21.44 0 10.88 0 0 Z " fill="#78B9EB" transform="translate(64,232)"/>
<path d="M0 0 C10.56 0 21.12 0 32 0 C32 10.56 32 21.12 32 32 C21.44 32 10.88 32 0 32 C0 21.44 0 10.88 0 0 Z " fill="#78B9EB" transform="translate(64,152)"/>
</svg>
