<?xml version="1.0" standalone="no"?>
<!DOCTYPE svg PUBLIC "-//W3C//DTD SVG 20010904//EN"
 "http://www.w3.org/TR/2001/REC-SVG-20010904/DTD/svg10.dtd">
<svg version="1.0" xmlns="http://www.w3.org/2000/svg"
 width="1280.000000pt" height="1160.000000pt" viewBox="0 0 1280.000000 1160.000000"
 preserveAspectRatio="xMidYMid meet">
<g transform="translate(0.000000,1160.000000) scale(0.100000,-0.100000)"
fill="#000000" stroke="none">
<path d="M5198 10529 c-471 -28 -989 -180 -1433 -421 -152 -83 -375 -232 -530
-355 -140 -111 -425 -396 -539 -538 -285 -358 -514 -795 -636 -1215 -54 -186
-84 -332 -115 -550 -22 -154 -25 -210 -25 -471 0 -163 4 -319 10 -347 5 -28
14 -91 20 -139 28 -235 129 -610 228 -848 214 -515 563 -995 971 -1336 257
-215 452 -343 727 -479 309 -152 574 -240 924 -309 381 -74 878 -76 1264 -5
292 53 507 119 807 245 128 54 175 60 218 29 16 -10 77 -75 137 -142 60 -68
156 -175 215 -238 59 -63 166 -185 239 -270 74 -85 204 -231 290 -325 137
-150 400 -444 515 -576 22 -25 103 -115 180 -200 77 -86 227 -254 334 -375
107 -120 251 -275 320 -345 115 -114 135 -129 221 -171 149 -72 199 -83 380
-82 138 1 165 4 244 28 304 92 548 326 643 617 50 154 53 398 7 535 -47 142
-97 214 -320 462 -88 97 -217 242 -289 322 -71 80 -249 278 -395 441 -146 162
-354 395 -463 517 -110 122 -202 222 -206 222 -10 0 -302 327 -374 418 -34 44
-114 137 -177 206 -126 139 -160 187 -160 227 0 14 24 66 53 115 259 433 418
893 482 1394 49 384 36 753 -40 1128 -119 586 -346 1068 -729 1547 -108 136
-374 399 -521 516 -707 564 -1546 824 -2477 768z m572 -520 c473 -45 1015
-249 1415 -532 235 -167 516 -435 671 -642 329 -440 523 -906 600 -1445 8 -58
18 -202 21 -320 10 -396 -50 -765 -185 -1130 -90 -246 -303 -631 -416 -753
-27 -30 -41 -38 -63 -35 -33 4 -28 -3 -172 259 -252 456 -565 853 -841 1061
-121 92 -305 187 -424 219 -123 33 -183 25 -339 -44 -208 -93 -298 -124 -487
-163 -250 -52 -564 3 -940 164 -131 56 -164 66 -210 65 -154 -1 -434 -180
-647 -411 -203 -221 -410 -510 -594 -827 -99 -172 -123 -205 -149 -205 -37 0
-111 100 -212 285 -127 232 -216 459 -283 720 -65 257 -85 424 -85 729 0 261
15 421 56 616 148 692 522 1302 1067 1741 154 124 377 268 549 355 113 57 360
151 507 193 184 52 446 99 616 110 153 10 380 6 545 -10z"/>
<path d="M5132 9160 c-473 -67 -891 -424 -1035 -885 -49 -154 -52 -181 -51
-395 0 -175 3 -218 21 -290 112 -446 440 -797 865 -924 120 -36 186 -46 333
-53 652 -27 1222 446 1320 1093 74 490 -137 973 -541 1244 -154 103 -283 159
-449 195 -83 19 -372 28 -463 15z"/>
</g>
</svg>
