<svg width="61" height="59" viewBox="0 0 61 59" fill="none" xmlns="http://www.w3.org/2000/svg">
<path fill-rule="evenodd" clip-rule="evenodd" d="M48.5766 52.3657C55.5392 46.9949 60.0085 38.6719 60.0085 29.3284C60.0085 13.1308 46.5771 0 30.0085 0C13.44 0 0.00854492 13.1308 0.00854492 29.3284C0.00854492 38.4267 4.24639 46.5574 10.8976 51.9368C14.0936 46.1999 17.8458 41.9012 21.9495 39.4905C17.5338 36.8243 14.5913 32.0496 14.5913 26.6031C14.5913 18.2435 21.5233 11.4667 30.0743 11.4667C38.6254 11.4667 45.5574 18.2435 45.5574 26.6031C45.5574 32.2387 42.4069 37.155 37.7339 39.7606C41.7647 42.2783 45.4449 46.6248 48.5766 52.3657ZM30.0664 58.6567H29.9507C29.97 58.6567 29.9893 58.6567 30.0085 58.6567C30.0278 58.6567 30.0471 58.6567 30.0664 58.6567Z" fill="#D9D9D9"/>
</svg>
