<?xml version="1.0" encoding="utf-8"?>
<!-- Svg Vector Icons : http://www.onlinewebfonts.com/icon -->
<!DOCTYPE svg PUBLIC "-//W3C//DTD SVG 1.1//EN" "http://www.w3.org/Graphics/SVG/1.1/DTD/svg11.dtd">
<svg version="1.1" xmlns="http://www.w3.org/2000/svg" xmlns:xlink="http://www.w3.org/1999/xlink" x="0px" y="0px" viewBox="0 0 256 256" enable-background="new 0 0 256 256" xml:space="preserve">
<metadata> Svg Vector Icons : http://www.onlinewebfonts.com/icon </metadata>
<g><g><path fill="#000000" d="M221.6,94.5l-1.1-0.4c-1-2.6-2-5.2-3.2-7.8l0.5-1c4-4.8,6.2-10.9,6.2-17.2c0-7.2-2.8-14-7.9-19.1l-9.6-9.6c-3.3-3.3-8.8-8.8-17.8-8.8c-8.3,0-15.2,5-18.2,7.5l-1,0.5c-2.5-1.2-5.1-2.2-7.8-3.2l-0.4-1.1c-1.3-13.8-12.9-24.5-26.9-24.5h-13c-13.7,0-25.2,10.3-26.8,23.8l-0.1,0.3c-3,1.1-5.9,2.2-8.7,3.6l-1.3-0.7c-6.1-4.9-12.4-4.9-16.3-4.9c-7.2,0-14,2.8-19.1,7.9L40,49C34.9,54.1,32,60.9,32,68.2c0,6.3,2.2,12.4,6.1,17.2l0.6,1.1c-1.2,2.5-2.2,5.1-3.2,7.7l-1.2,0.4C20.6,95.9,10,107.5,10,121.5v13c0,14,10.6,25.6,24.3,27l1.2,0.4c1,2.6,2,5.2,3.2,7.7l-0.6,1.1c-3.9,4.8-6.1,10.9-6.1,17.1c0,7.2,2.8,14.1,7.9,19.2l9.2,9.2c4.9,5,11.9,7.8,19.2,7.8c6.4,0,12.4-2.1,17.1-6l1.1-0.6c2.5,1.2,5.1,2.2,7.7,3.2l0.4,1.2c1.4,13.8,13,24.4,26.9,24.4h13c14,0,25.6-10.6,26.9-24.4l0.4-1.2c2.6-1,5.2-2,7.7-3.2l1,0.5c4.7,3.9,10.8,6,17.1,6c7.2,0,14.2-2.8,19.1-7.8l9.2-9.2c5.1-5.1,7.9-11.9,7.9-19.2c0-6.3-2.2-12.4-6.2-17.2l-0.5-1c1.2-2.6,2.2-5.1,3.2-7.8l1.1-0.4c13.8-1.3,24.4-13,24.4-27v-13C246,107.5,235.4,95.9,221.6,94.5z M228.9,134.5c0,5.3-4.1,9.7-9.4,10c-0.7,0-1.5,0.2-2.2,0.4l-6.2,2c-2.6,0.9-4.7,2.9-5.5,5.6c-1.4,4.6-3.3,9-5.4,13.2c-1.3,2.5-1.3,5.4,0,7.8l2.9,5.8c0.3,0.7,0.8,1.3,1.3,1.9c1.7,1.9,2.6,4.2,2.6,6.7c0,2.7-1,5.2-2.9,7.1l-9.2,9.2c-3.4,3.4-10.2,3.6-13.7,0.4c-0.6-0.5-1.2-0.9-1.9-1.3l-5.8-2.9c-2.5-1.3-5.4-1.2-7.8,0c-4.1,2.2-8.6,4-13.1,5.4c-2.6,0.8-4.7,2.8-5.5,5.4l-2.1,6.2c-0.2,0.7-0.4,1.5-0.4,2.3c-0.3,5.3-4.6,9.4-9.9,9.4h-13c-5.3,0-9.7-4.1-9.9-9.4c0-0.8-0.2-1.5-0.4-2.3l-2.1-6.2c-0.9-2.6-2.9-4.6-5.5-5.5c-4.6-1.4-9-3.3-13.1-5.4c-1.2-0.7-2.6-1-3.9-1c-1.3,0-2.6,0.3-3.8,0.9l-5.8,2.9c-0.7,0.3-1.3,0.8-1.9,1.3c-3.5,3.2-10.3,3-13.7-0.4l-9.2-9.2c-1.9-1.9-2.9-4.4-2.9-7.1c0-2.5,0.9-4.8,2.6-6.6c0.5-0.6,1-1.2,1.3-1.9l2.9-5.8c1.2-2.5,1.2-5.3-0.1-7.8c-2.2-4.2-4-8.6-5.4-13.1c-0.8-2.6-2.8-4.7-5.4-5.5l-6.2-2.1c-0.7-0.2-1.5-0.4-2.3-0.4c-5.3-0.3-9.4-4.7-9.4-10v-13c0-5.3,4.1-9.7,9.4-10c0.8,0,1.5-0.2,2.3-0.4l6.2-2.1c2.6-0.9,4.6-2.9,5.4-5.6c1.4-4.6,3.3-9,5.4-13.1c1.3-2.4,1.3-5.3,0.1-7.8l-2.9-5.8c-0.3-0.7-0.8-1.3-1.3-1.9c-1.7-1.9-2.6-4.2-2.6-6.7c0-2.7,1-5.2,2.9-7.1l9.2-9.2c1.9-1.9,4.4-2.9,7-2.9c3.2,0,4.5,0.1,5.9,1.4c0.6,0.5,1.2,0.9,1.9,1.3l6,3c2.5,1.2,5.3,1.2,7.8-0.1c4.3-2.2,8.9-4.1,13.7-5.6c2.4-0.7,4.4-2.6,5.3-4.9l2.1-5.1c0.4-0.9,0.6-1.8,0.7-2.7c0.4-5.2,4.8-9.3,10-9.3h13c5.3,0,9.7,4.2,9.9,9.5c0,0.7,0.2,1.5,0.4,2.2l2,6.2c0.9,2.6,2.9,4.7,5.6,5.5c4.6,1.4,9,3.3,13.2,5.4c2.4,1.3,5.3,1.3,7.8,0l5.7-2.9c0.7-0.4,1.3-0.8,1.9-1.3c2.4-2.2,5.6-3.8,7.6-3.8c1.7,0,3.1,1.2,5.7,3.8l9.6,9.6c1.9,1.9,2.9,4.4,2.9,7c0,2.5-0.9,4.8-2.6,6.7c-0.5,0.6-0.9,1.2-1.3,1.9l-2.9,5.8c-1.3,2.5-1.2,5.4,0,7.8c2.2,4.2,4,8.7,5.4,13.2c0.8,2.6,2.9,4.7,5.5,5.6l6.2,2c0.7,0.2,1.5,0.4,2.2,0.4c5.3,0.3,9.4,4.6,9.4,10L228.9,134.5L228.9,134.5z M128,90.5c-20.6,0-37.4,16.8-37.4,37.5c0,20.7,16.8,37.5,37.4,37.5c20.6,0,37.4-16.8,37.4-37.5C165.4,107.3,148.6,90.5,128,90.5z M128,148.4c-11.2,0-20.3-9.2-20.3-20.4c0-11.2,9.1-20.4,20.3-20.4c11.2,0,20.3,9.2,20.3,20.4C148.3,139.2,139.2,148.4,128,148.4z"/></g></g>
</svg>